<svg aria-hidden="true" xmlns="http://www.w3.org/2000/svg" xmlns:xlink="http://www.w3.org/1999/xlink"><symbol viewBox="0 0 31 31" id="circle" xmlns="http://www.w3.org/2000/svg">
<path d="M15.5 0C6.94019 0 0 6.94269 0 15.5C0 24.0623 6.94019 31 15.5 31C24.0598 31 31 24.0623 31 15.5C31 6.94269 24.0598 0 15.5 0ZM15.5 28C8.59175 28 3 22.4106 3 15.5C3 8.59406 8.592 3 15.5 3C22.4057 3 28 8.59194 28 15.5C28 22.4081 22.4106 28 15.5 28ZM22.2027 12.05C22.2027 16.2408 17.6764 16.3053 17.6764 17.8539V18.25C17.6764 18.6642 17.3406 19 16.9264 19H14.0735C13.6593 19 13.3235 18.6642 13.3235 18.25V17.7088C13.3235 15.4747 15.0173 14.5817 16.2972 13.8641C17.3948 13.2487 18.0674 12.8303 18.0674 12.0154C18.0674 10.9375 16.6925 10.2221 15.5809 10.2221C14.1316 10.2221 13.4626 10.9081 12.5221 12.0951C12.2685 12.4151 11.8058 12.4746 11.4804 12.2279L9.74144 10.9093C9.42225 10.6673 9.35075 10.2176 9.57619 9.88656C11.0529 7.71819 12.9338 6.5 15.8621 6.5C18.9291 6.5 22.2027 8.894 22.2027 12.05ZM18.125 22.5C18.125 23.9474 16.9474 25.125 15.5 25.125C14.0526 25.125 12.875 23.9474 12.875 22.5C12.875 21.0526 14.0526 19.875 15.5 19.875C16.9474 19.875 18.125 21.0526 18.125 22.5Z"/>
</symbol><symbol enable-background="new 0 0 32 32" viewBox="0 0 32 32" xml:space="preserve" id="facebook" xmlns="http://www.w3.org/2000/svg"><g id="bOUTLINE_copy_2"><g><path d="M16,0C7.164,0,0,7.164,0,16s7.164,16,16,16s16-7.164,16-16S24.836,0,16,0z M19.488,15.999h-2.239v8.124h-3.357V16h-1.677    v-2.8h1.677v-1.681c0-2.284,0.947-3.642,3.637-3.642h2.24v2.8h-1.4c-1.047,0-1.117,0.392-1.117,1.121L17.249,13.2h2.536    L19.488,15.999z"/></g></g></symbol><symbol id="instagram" viewBox="0 0 512 512" xmlns="http://www.w3.org/2000/svg"><title/><path d="M314.757,147.525H197.243a49.717,49.717,0,0,0-49.718,49.718V314.757a49.718,49.718,0,0,0,49.718,49.718H314.757a49.718,49.718,0,0,0,49.717-49.718V197.243A49.717,49.717,0,0,0,314.757,147.525ZM256,324.391A68.391,68.391,0,1,1,324.391,256,68.391,68.391,0,0,1,256,324.391ZM327.242,201.58a16.271,16.271,0,1,1,16.27-16.271A16.271,16.271,0,0,1,327.242,201.58Z"/><path d="M256,211.545A44.455,44.455,0,1,0,300.455,256,44.455,44.455,0,0,0,256,211.545Z"/><path d="M256,0C114.615,0,0,114.615,0,256S114.615,512,256,512,512,397.385,512,256,397.385,0,256,0ZM389.333,312.5A76.836,76.836,0,0,1,312.5,389.333H199.5A76.837,76.837,0,0,1,122.666,312.5V199.5A76.836,76.836,0,0,1,199.5,122.667H312.5A76.836,76.836,0,0,1,389.333,199.5Z"/></symbol><symbol viewBox="0 0 70 70" id="location" xmlns="http://www.w3.org/2000/svg">
<circle cx="35" cy="35" r="35"/>
<path d="M33.2529 56.4187C20.388 37.7684 18 35.8543 18 29C18 19.6111 25.6111 12 35 12C44.3889 12 52 19.6111 52 29C52 35.8543 49.612 37.7684 36.7471 56.4187C35.9029 57.6383 34.0971 57.6382 33.2529 56.4187ZM35 36.0833C38.912 36.0833 42.0833 32.912 42.0833 29C42.0833 25.088 38.912 21.9167 35 21.9167C31.088 21.9167 27.9167 25.088 27.9167 29C27.9167 32.912 31.088 36.0833 35 36.0833Z"/>
</symbol><symbol viewBox="0 0 46 46" id="logo" xmlns="http://www.w3.org/2000/svg">
<path d="M31.7275 0.0135729C33.1794 -0.121349 34.5307 0.760968 34.9017 2.15457L36.2324 7.14933C19.3753 7.63665 7.97195 18.7428 7.25857 35.2876L2.1427 33.8869C0.730305 33.4999 -0.147499 32.14 0.0205154 30.7003C1.89651 14.6535 15.3834 1.53766 31.7275 0.0135729ZM36.9808 9.95517L45.952 43.6403C46.0172 43.885 46.016 44.1424 45.9484 44.3865C45.8807 44.6306 45.7492 44.8527 45.5669 45.0305C45.3847 45.2083 45.1582 45.3355 44.9103 45.3992C44.6624 45.4629 44.4019 45.4609 44.1551 45.3934L10.1031 36.0643C10.4868 20.5403 21.1615 10.1327 36.9808 9.95872V9.95517ZM34.501 36.9262C35.0697 36.9262 35.6255 36.7596 36.0983 36.4475C36.5711 36.1354 36.9397 35.6918 37.1573 35.1727C37.3749 34.6537 37.4318 34.0826 37.3209 33.5316C37.2099 32.9806 36.9361 32.4745 36.534 32.0772C36.1319 31.68 35.6196 31.4095 35.0619 31.2999C34.5042 31.1903 33.9261 31.2465 33.4008 31.4615C32.8754 31.6765 32.4264 32.0406 32.1105 32.5077C31.7945 32.9748 31.6259 33.524 31.6259 34.0858C31.6259 34.8391 31.9288 35.5616 32.468 36.0943C33.0072 36.6269 33.7385 36.9262 34.501 36.9262ZM30.1884 23.434C30.757 23.434 31.3129 23.2674 31.7857 22.9553C32.2585 22.6432 32.627 22.1996 32.8446 21.6806C33.0622 21.1615 33.1192 20.5904 33.0082 20.0394C32.8973 19.4884 32.6235 18.9823 32.2214 18.5851C31.8193 18.1878 31.307 17.9173 30.7493 17.8077C30.1916 17.6981 29.6135 17.7543 29.0881 17.9693C28.5628 18.1843 28.1137 18.5484 27.7978 19.0155C27.4819 19.4826 27.3133 20.0318 27.3133 20.5936C27.3133 21.3469 27.6162 22.0694 28.1554 22.6021C28.6946 23.1348 29.4259 23.434 30.1884 23.434ZM20.8443 32.6655C21.4129 32.6655 21.9688 32.4989 22.4416 32.1868C22.9144 31.8747 23.2829 31.4311 23.5006 30.9121C23.7182 30.393 23.7751 29.8219 23.6642 29.2709C23.5532 28.7199 23.2794 28.2138 22.8773 27.8166C22.4752 27.4193 21.9629 27.1488 21.4052 27.0392C20.8475 26.9296 20.2694 26.9858 19.7441 27.2008C19.2187 27.4158 18.7697 27.7799 18.4538 28.247C18.1378 28.7141 17.9692 29.2633 17.9692 29.8251C17.9692 30.5784 18.2721 31.3009 18.8113 31.8336C19.3505 32.3663 20.0818 32.6655 20.8443 32.6655Z"/>
</symbol><symbol viewBox="0 0 16 4" id="minus" xmlns="http://www.w3.org/2000/svg">
<path d="M14.8571 0H1.14286C0.511786 0 0 0.511785 0 1.14286V2.28571C0 2.91678 0.511786 3.42857 1.14286 3.42857H14.8571C15.4882 3.42857 16 2.91678 16 2.28571V1.14286C16 0.511785 15.4882 0 14.8571 0Z"/>
</symbol><symbol viewBox="0 0 101 90" id="moon" xmlns="http://www.w3.org/2000/svg">
<path d="M60.1052 61.841C61.1046 60.1578 61.7183 58.2115 61.7183 56.1075C61.7183 49.9182 56.6861 44.886 50.4968 44.886C47.481 44.886 44.7457 46.0958 42.7294 48.0245C39.8714 42.8346 34.4009 39.2753 28.0538 39.2753C18.7609 39.2753 11.2215 46.8147 11.2215 56.1075C11.2215 56.4582 11.3092 56.7738 11.3267 57.1069C4.7516 59.4038 0 65.5932 0 72.9398C0 82.2326 7.53945 89.772 16.8323 89.772H58.9129C66.6627 89.772 72.9398 83.495 72.9398 75.7451C72.9398 68.3986 67.2764 62.4547 60.1052 61.841ZM99.1174 52.3203C82.7936 55.4237 67.8199 42.9047 67.8199 26.4231C67.8199 16.9199 72.9047 8.18819 81.163 3.48919C82.443 2.77031 82.1098 0.841613 80.6721 0.561075C78.6206 0.19287 76.5692 0 74.5178 0C55.9497 0 40.8708 15.0614 40.8708 33.6645C40.8708 35.1549 40.9935 36.6102 41.1864 38.0479C42.2209 38.8018 43.2203 39.6084 44.1145 40.5377C46.1134 39.7136 48.27 39.2753 50.4968 39.2753C59.772 39.2753 67.329 46.8322 67.329 56.1075C67.329 56.7387 67.2939 57.3699 67.2238 57.9836C71.3617 59.8772 74.6581 63.156 76.6043 67.2063C86.1426 66.6101 94.7866 62.0689 100.643 54.8626C101.572 53.7229 100.555 52.0397 99.1174 52.3203Z"/>
</symbol><symbol viewBox="0 0 70 70" id="payment" xmlns="http://www.w3.org/2000/svg">
<circle cx="35" cy="35" r="35"/>
<path d="M50.0773 22H20.9227C19.3064 22 18 23.3064 18 24.9167V46.3055C18 47.9158 19.3064 49.2222 20.9227 49.2222H50.0773C51.6936 49.2222 53 47.9158 53 46.3055V24.9167C53 23.3064 51.6936 22 50.0773 22ZM21.2873 24.9167H49.7127C49.9132 24.9167 50.0773 25.0807 50.0773 25.2812V27.8333H20.9227V25.2812C20.9227 25.0807 21.0868 24.9167 21.2873 24.9167ZM49.7127 46.3055H21.2873C21.0868 46.3055 20.9227 46.1415 20.9227 45.941V35.6111H50.0773V45.941C50.0773 46.1415 49.9132 46.3055 49.7127 46.3055ZM29.6667 40.2292V42.6597C29.6667 43.0608 29.3385 43.3889 28.9375 43.3889H24.5625C24.1615 43.3889 23.8333 43.0608 23.8333 42.6597V40.2292C23.8333 39.8281 24.1615 39.5 24.5625 39.5H28.9375C29.3385 39.5 29.6667 39.8281 29.6667 40.2292ZM41.3333 40.2292V42.6597C41.3333 43.0608 41.0052 43.3889 40.6042 43.3889H32.3403C31.9392 43.3889 31.6111 43.0608 31.6111 42.6597V40.2292C31.6111 39.8281 31.9392 39.5 32.3403 39.5H40.6042C41.0052 39.5 41.3333 39.8281 41.3333 40.2292Z"/>
</symbol><symbol viewBox="0 0 12 12" id="plus" xmlns="http://www.w3.org/2000/svg">
<path d="M11.1429 4.71429H7.28571V0.857143C7.28571 0.383839 6.90188 0 6.42857 0H5.57143C5.09812 0 4.71429 0.383839 4.71429 0.857143V4.71429H0.857143C0.383839 4.71429 0 5.09812 0 5.57143V6.42857C0 6.90188 0.383839 7.28571 0.857143 7.28571H4.71429V11.1429C4.71429 11.6162 5.09812 12 5.57143 12H6.42857C6.90188 12 7.28571 11.6162 7.28571 11.1429V7.28571H11.1429C11.6162 7.28571 12 6.90188 12 6.42857V5.57143C12 5.09812 11.6162 4.71429 11.1429 4.71429Z"/>
</symbol><symbol viewBox="0 0 19 18" id="search-location" xmlns="http://www.w3.org/2000/svg">
<path d="M0.258375 15.4332L3.95853 11.9575C4.12552 11.8006 4.35189 11.7134 4.58939 11.7134H5.19427C4.17006 10.4827 3.56146 8.93509 3.56146 7.25113C3.56146 3.24554 7.0167 0 11.2805 0C15.5444 0 19 3.24554 19 7.25113C19 11.2567 15.5448 14.5023 11.2805 14.5023C9.48817 14.5023 7.84015 13.9305 6.5302 12.9682V13.5365C6.5302 13.7597 6.43743 13.9723 6.27044 14.1292L2.57028 17.6049C2.22145 17.9326 1.65739 17.9326 1.31227 17.6049L0.262087 16.6182C-0.0867405 16.2905 -0.0867405 15.7609 0.258375 15.4332ZM11.2805 12.2709C14.2322 12.2709 16.6243 10.0277 16.6243 7.25113C16.6243 4.47835 14.2363 2.23133 11.2805 2.23133C8.32888 2.23133 5.93682 4.47452 5.93682 7.25113C5.93682 10.0239 8.3248 12.2709 11.2805 12.2709ZM11.2798 3.90483C12.7931 3.90483 14.0199 5.05711 14.0199 6.47888C14.0199 7.62802 12.2291 9.72303 11.5429 10.4834C11.5107 10.5196 11.4705 10.5487 11.425 10.5687C11.3796 10.5886 11.33 10.599 11.2798 10.599C11.2296 10.599 11.18 10.5886 11.1346 10.5687C11.0891 10.5487 11.0489 10.5196 11.0167 10.4834C10.3306 9.72303 8.53966 7.62837 8.53966 6.47888C8.53966 5.05711 9.76649 3.90483 11.2798 3.90483ZM11.2798 7.25183C11.7719 7.25183 12.1704 6.87704 12.1704 6.41508C12.1704 5.95278 11.7715 5.57833 11.2798 5.57833C10.7881 5.57833 10.3892 5.95278 10.3892 6.41508C10.3892 6.87704 10.7881 7.25183 11.2798 7.25183Z"/>
</symbol><symbol viewBox="0 0 89 72" id="sun" xmlns="http://www.w3.org/2000/svg">
<path d="M79.9887 45.2927C80.0166 45.0285 80.1 44.7782 80.1 44.5139C80.1 39.605 76.1089 35.6139 71.2 35.6139C69.4478 35.6139 67.8347 36.1424 66.458 37.0046C64.0105 31.6089 58.6009 27.8264 52.2875 27.8264C43.6934 27.8264 36.7125 34.7935 36.7125 43.4014C36.7125 43.8186 36.8098 44.208 36.8377 44.6113C29.9402 45.1258 24.475 50.8274 24.475 57.8639C24.475 65.2343 30.4547 71.2139 37.825 71.2139H75.65C83.0203 71.2139 89 65.2343 89 57.8639C89 52.0094 85.2175 47.1005 79.9887 45.2927ZM20.1362 42.1499C14.0592 36.0728 14.0592 26.1994 20.1362 20.1363C26.2133 14.0592 36.0867 14.0592 42.1637 20.1363C43.5127 21.4852 44.5139 23.0427 45.2648 24.6836C46.6277 24.1691 48.06 23.8492 49.5341 23.6406L53.6781 11.278C54.2344 9.62313 52.663 8.06563 51.0081 8.60797L38.7984 12.6825L33.0273 1.16813C32.2625 -0.389375 30.0375 -0.389375 29.2587 1.16813L23.5016 12.6825L11.278 8.60797C9.63703 8.06563 8.06563 9.63704 8.60797 11.278L12.6825 23.4877L1.16812 29.2588C-0.389375 30.0375 -0.389375 32.2486 1.16812 33.0274L12.6825 38.7846L8.60797 50.9943C8.05172 52.6491 9.62312 54.2066 11.278 53.6642L21.8606 50.146C22.7089 48.4216 23.8075 46.8502 25.1425 45.4874C23.3208 44.7364 21.6103 43.6239 20.1362 42.1499ZM19.4688 31.1361C19.4688 36.8099 23.5433 41.538 28.9111 42.581C30.0236 41.9274 31.1778 41.3572 32.4155 40.9539C33.1664 34.7935 36.7264 29.4813 41.7883 26.3524C39.9527 22.3056 35.8781 19.4688 31.15 19.4688C24.7114 19.4688 19.4688 24.6975 19.4688 31.1361Z"/>
</symbol><symbol id="telegram" viewBox="0 0 512 512" xmlns="http://www.w3.org/2000/svg"><title/><path d="M256,0C114.615,0,0,114.615,0,256S114.615,512,256,512,512,397.385,512,256,397.385,0,256,0ZM389.059,161.936,343.591,379a16.007,16.007,0,0,1-25.177,9.593l-66.136-48.861-40.068,37.8a5.429,5.429,0,0,1-7.74-.294l-.861-.946,6.962-67.375L336.055,194.266a3.358,3.358,0,0,0-4.061-5.317L171.515,290.519,102.4,267.307a9.393,9.393,0,0,1-.32-17.694L372.5,147.744A12.441,12.441,0,0,1,389.059,161.936Z"/></symbol><symbol viewBox="0 0 35 28" id="user-plus" xmlns="http://www.w3.org/2000/svg">
<path d="M34.125 11.375H30.625V7.875C30.625 7.39375 30.2313 7 29.75 7H28C27.5187 7 27.125 7.39375 27.125 7.875V11.375H23.625C23.1437 11.375 22.75 11.7688 22.75 12.25V14C22.75 14.4812 23.1437 14.875 23.625 14.875H27.125V18.375C27.125 18.8563 27.5187 19.25 28 19.25H29.75C30.2313 19.25 30.625 18.8563 30.625 18.375V14.875H34.125C34.6063 14.875 35 14.4812 35 14V12.25C35 11.7688 34.6063 11.375 34.125 11.375ZM12.25 14C16.1164 14 19.25 10.8664 19.25 7C19.25 3.13359 16.1164 0 12.25 0C8.38359 0 5.25 3.13359 5.25 7C5.25 10.8664 8.38359 14 12.25 14ZM17.15 15.75H16.2367C15.0227 16.3078 13.6719 16.625 12.25 16.625C10.8281 16.625 9.48281 16.3078 8.26328 15.75H7.35C3.29219 15.75 0 19.0422 0 23.1V25.375C0 26.8242 1.17578 28 2.625 28H21.875C23.3242 28 24.5 26.8242 24.5 25.375V23.1C24.5 19.0422 21.2078 15.75 17.15 15.75Z"/>
</symbol><symbol viewBox="0 0 70 70" id="users" xmlns="http://www.w3.org/2000/svg">
<circle cx="35" cy="35" r="35"/>
<path d="M35 30.8571C41.3125 30.8571 46.4286 25.741 46.4286 19.4286C46.4286 13.1161 41.3125 8 35 8C28.6875 8 23.5714 13.1161 23.5714 19.4286C23.5714 25.741 28.6875 30.8571 35 30.8571ZM43 33.7143H41.5089C39.5268 34.625 37.3214 35.1428 35 35.1428C32.6786 35.1428 30.4821 34.625 28.4911 33.7143H27C20.375 33.7143 15 39.0892 15 45.7142V49.4285C15 51.7946 16.9196 53.7142 19.2857 53.7142H50.7143C53.0804 53.7142 55 51.7946 55 49.4285V45.7142C55 39.0892 49.625 33.7143 43 33.7143Z"/>
</symbol><symbol viewBox="0 0 72 72" id="viber" xmlns="http://www.w3.org/2000/svg"><g fill-rule="evenodd"><path d="M36,72 L36,72 C55.882251,72 72,55.882251 72,36 L72,36 C72,16.117749 55.882251,-3.65231026e-15 36,0 L36,0 C16.117749,3.65231026e-15 -2.4348735e-15,16.117749 0,36 L0,36 C2.4348735e-15,55.882251 16.117749,72 36,72 Z"/><path d="M36,62 C50.3594035,62 62,50.3594035 62,36 C62,21.6405965 50.3594035,10 36,10 C21.6405965,10 10,21.6405965 10,36 C10,50.3594035 21.6405965,62 36,62 Z M37.5571629,51.4092073 C39.3250625,51.1885637 40.7537333,50.7626724 42.3212328,49.9980941 C43.8629385,49.2437415 44.8496439,48.5304918 46.1550194,47.2322711 C47.3781599,46.005859 48.0565509,45.0770405 48.7760021,43.6351454 C49.7781742,41.6236084 50.3486317,39.2323957 50.446219,36.5999928 C50.4822541,35.7020325 50.4565556,35.5018499 50.2509396,35.2453211 C49.8603901,34.7475069 49.0020911,34.8297031 48.7092243,35.3889765 C48.6166623,35.5737252 48.5909638,35.7327287 48.5601352,36.451177 C48.5087288,37.5544327 48.4317194,38.2676824 48.2775097,39.1195223 C47.671103,42.4600239 46.0676543,45.1283692 43.5083192,47.0424095 C41.3755781,48.6433747 39.1708433,49.4233869 36.2826923,49.5927018 C35.3062281,49.6491433 35.1366471,49.6850285 34.9156787,49.8543911 C34.5044561,50.1776823 34.4839736,50.9371002 34.8796437,51.2911638 C35.1211994,51.511855 35.2907709,51.5426274 36.1284922,51.5169678 C36.5653274,51.5015816 37.2076833,51.4502625 37.5571629,51.4092073 L37.5571629,51.4092073 Z M25.8090123,50.8549991 C25.9889204,50.7934448 26.2664254,50.6497894 26.4257556,50.5471417 C27.402134,49.9005592 30.1207993,46.426647 31.0099174,44.692195 C31.5186415,43.7018602 31.688213,42.9680639 31.5289781,42.4241291 C31.3644318,41.8391485 31.0921429,41.5312435 29.874123,40.5511345 C29.3858909,40.1560632 28.9284779,39.7506709 28.856589,39.6429008 C28.6715603,39.3760511 28.5224712,38.852663 28.5224712,38.4832036 C28.5276872,37.6262509 29.0826875,36.0714347 29.8124753,34.8758046 C30.3777169,33.9470242 31.3901303,32.7566022 32.3923024,31.8431604 C33.5691666,30.7655166 34.6072784,30.0318154 35.7790221,29.4519002 C37.2847881,28.7027557 38.2047348,28.5128941 38.8779956,28.8258643 C39.0475671,28.9028525 39.2273894,29.0055002 39.2840022,29.0516208 C39.3353133,29.0978365 39.7310787,29.5802169 40.1627838,30.1138212 C40.995289,31.1606831 41.1854383,31.3299981 41.7558959,31.524982 C42.4805631,31.7712851 43.2205921,31.7046179 43.9657418,31.3248852 C44.5310787,31.0323664 45.76447,30.2677976 46.561026,29.7136275 C47.6093791,28.9798311 49.8500631,27.1530428 50.1533618,26.7886582 C50.6877843,26.13185 50.7803463,25.2903787 50.4205301,24.3615032 C50.0402219,23.3814894 48.5601543,21.5443896 47.5271631,20.7592646 C46.5918546,20.0511278 45.9289304,19.7792509 45.05526,19.7381575 C44.3358087,19.7022627 44.037726,19.7638171 43.1177793,20.1435498 C35.9023936,23.1146396 30.1413676,27.5481141 25.5674471,33.6391573 C23.1777789,36.8206173 21.3584729,40.1201018 20.114745,43.542752 C19.3901732,45.5388457 19.354224,46.4060718 19.9502941,47.427217 C20.207307,47.8582307 21.3019459,48.9255917 22.0985019,49.5208075 C23.4244552,50.5060674 24.0359826,50.8704139 24.5242147,50.973014 C24.8582466,51.0448703 25.4389454,50.9884288 25.8090123,50.8549991 L25.8090123,50.8549991 Z M37.9117727,47.6889348 C41.031324,47.2322711 43.4466907,45.7851774 45.0295615,43.4350105 C45.9186796,42.1111112 46.47368,40.556295 46.6638388,38.8886054 C46.7306071,38.2779558 46.7306071,37.1644267 46.6587182,36.9796779 C46.5918546,36.8052502 46.3760068,36.5691728 46.1909686,36.4717237 C45.9905685,36.369076 45.5640794,36.3793017 45.3276443,36.5024961 C44.9318789,36.7025929 44.8137138,37.0207713 44.8137138,37.8828369 C44.8137138,39.211849 44.4693548,40.6127365 43.8732846,41.700606 C43.1948937,42.9424043 42.2081978,43.9686719 41.0056351,44.6819692 C39.972644,45.2977317 38.4463001,45.754405 37.0535785,45.8672784 C36.5498892,45.9083718 36.2723843,46.0109814 36.082235,46.2316249 C35.7893682,46.5651895 35.7584538,47.0167499 36.0051302,47.3913126 C36.2723748,47.8069687 36.683502,47.8736836 37.9117727,47.6889348 L37.9117727,47.6889348 Z M39.0064115,43.8147432 C40.0188249,43.5992125 40.7948985,43.2143669 41.4578227,42.5934535 C42.3109057,41.7878771 42.7786458,40.8128809 42.984157,39.4119935 C43.1229095,38.4985993 43.0663825,38.1394228 42.7426013,37.8417911 C42.4394074,37.5647061 41.8792865,37.5544327 41.5400481,37.8161316 C41.2933718,38.0008803 41.2162669,38.1958643 41.1597399,38.7243652 C41.0929717,39.4273892 40.9695906,39.9199954 40.7589493,40.3767163 C40.3066568,41.3465424 39.5101008,41.8494314 38.163665,42.0136335 C37.5314645,42.0906216 37.3413152,42.1624493 37.1357944,42.4035919 C36.7606069,42.8500395 36.9044799,43.5735625 37.4235406,43.8404123 C37.6189059,43.9378995 37.7011314,43.9481728 38.1327506,43.9225133 C38.4000048,43.9071176 38.7957702,43.8609494 39.0064115,43.8147432 L39.0064115,43.8147432 Z" transform="matrix(1 0 0 -1 0 72)"/></g></symbol><symbol id="whatsapp" viewBox="0 0 512 512" xmlns="http://www.w3.org/2000/svg"><title/><path d="M263,127.88a120.44,120.44,0,0,0-99.7,188l-11.769,45.405,47.321-11.041A120.432,120.432,0,1,0,263,127.88Zm59.22,186.186c-16.845,7.9-52.014,3.778-89.065-27.93S186.6,220.316,191.8,202.454s25.63-21.162,29.484-20.309,23.126,31.406,20.5,34.97-15.311,16.25-15.311,16.25-.534,12.98,23.284,33.364,36.56,17.851,36.56,17.851,10.574-14.5,13.689-17.639,36.28,11.181,37.718,14.857S339.059,306.169,322.215,314.066Z"/><path d="M256,0C114.615,0,0,114.615,0,256S114.615,512,256,512,512,397.385,512,256,397.385,0,256,0Zm7,393.951a144.986,144.986,0,0,1-68.86-17.282L116.7,396l19.615-75.8A145.656,145.656,0,1,1,263,393.951Z"/></symbol></svg>